<?xml version="1.0" encoding="UTF-8" standalone="no"?>
<!DOCTYPE svg PUBLIC "-//W3C//DTD SVG 1.1//EN" "http://www.w3.org/Graphics/SVG/1.1/DTD/svg11.dtd">
<svg width="100%" height="100%" viewBox="0 0 68 68" version="1.1" xmlns="http://www.w3.org/2000/svg" xmlns:xlink="http://www.w3.org/1999/xlink" xml:space="preserve" xmlns:serif="http://www.serif.com/" style="fill-rule:evenodd;clip-rule:evenodd;">
    <g id="Icone">
        <path d="M67,34C67,52.213 52.213,67 34,67C15.787,67 1,52.213 1,34C1,15.787 15.787,1 34,1C52.213,1 67,15.787 67,34Z" style="fill:white;fill-opacity:0.5;"/>
        <g>
            <path d="M67,34C67,52.213 52.213,67 34,67C15.787,67 1,52.213 1,34C1,15.787 15.787,1 34,1C52.213,1 67,15.787 67,34Z" style="fill:none;stroke:black;stroke-opacity:0.78;stroke-width:2px;"/>
            <path d="M43.6,38.8L34,29.2L24.4,38.8" style="fill:none;fill-rule:nonzero;stroke:black;stroke-opacity:0.78;stroke-width:2px;stroke-linecap:round;stroke-linejoin:round;"/>
        </g>
    </g>
</svg>
